# File created by Blade
# Date/Time:  Wed Apr 08 17:39:35 2015
# Frame Rate: 120.000 fps
#------------------------------------------------------
:FULLY-SPECIFIED
:DEGREES
4053
root 5.267153 36.581352 -6.524106 238.478483 -85.098656 -570.438909
Spine -25.484410 -0.652386 -5.691357
Head 14.841777 13.597914 3.244729
LeftShoulder -7.519025 14.958406 23.604530
LeftArm 14.907602 -22.385793 -42.504696
LeftForeArm 19.875944 -0.000000 21.313648
LeftHand -11.851801 -0.000000 -12.973199
LeftHandThumb1 -26.253704 0.000000 33.147579
RightShoulder -28.441449 -44.652484 -3.835691
RightArm 51.872240 30.696441 58.653703
RightForeArm 4.039324 -0.000000 10.194155
RightHand -0.029808 -0.000000 6.698202
RightHandThumb1 -24.326973 -0.000000 -32.862282
LeftUpLeg -34.684295 14.371814 -3.505253
LeftLeg 20.109049 -0.000000 -0.000000
LeftFoot -7.689388 12.899137 -10.701416
LeftToeBase -9.233071 -0.000000 0.000000
RightUpLeg -29.543039 -2.298759 -4.245322
RightLeg 11.386264 -0.000000 -0.000000
RightFoot -13.303794 -10.735073 18.817963
RightToeBase 8.840167 -0.000000 -0.000000
4054
root 5.271458 36.566198 -6.508385 239.106040 -85.427485 -571.005145
Spine -25.572065 -0.695064 -5.551862
Head 14.662219 13.501968 3.294753
LeftShoulder -7.372669 14.841255 23.823850
LeftArm 14.763324 -22.960212 -42.053673
LeftForeArm 19.708623 0.000000 20.928606
LeftHand -11.606841 -0.000000 -12.972211
LeftHandThumb1 -26.253704 0.000000 33.147579
RightShoulder -28.456235 -44.599405 -3.985790
RightArm 51.894836 31.244693 58.589037
RightForeArm 4.003096 0.000000 10.119139
RightHand -0.094599 0.000000 6.748166
RightHandThumb1 -24.326973 -0.000000 -32.862282
LeftUpLeg -34.532634 14.287948 -3.179548
LeftLeg 19.601944 -0.000000 -0.000000
LeftFoot -7.375302 12.489303 -12.048486
LeftToeBase -6.072127 -0.000000 0.000000
RightUpLeg -29.607376 -2.275935 -4.125665
RightLeg 11.490143 -0.000000 -0.000000
RightFoot -13.470552 -10.892891 18.931439
RightToeBase 8.843568 -0.000000 -0.000000
4055
root 5.274493 36.550831 -6.485451 239.216195 -85.709634 -571.066232
Spine -25.637650 -0.705960 -5.429690
Head 14.451496 13.499832 3.350773
LeftShoulder -7.282180 14.702841 24.057935
LeftArm 14.635353 -23.586863 -41.678412
LeftForeArm 19.593429 -0.000000 20.575544
LeftHand -11.929194 -0.000000 -12.931978
LeftHandThumb1 -26.253704 0.000000 33.147579
RightShoulder -28.441167 -44.522577 -4.112822
RightArm 51.890202 31.797464 58.450986
RightForeArm 4.063731 -0.000000 10.008203
RightHand -0.065983 0.000000 6.718836
RightHandThumb1 -24.326973 -0.000000 -32.862282
LeftUpLeg -34.406518 14.289802 -2.959442
LeftLeg 19.241616 -0.000000 -0.000000
LeftFoot -7.722503 11.963675 -12.112167
LeftToeBase -2.601686 -0.000000 0.000000
RightUpLeg -29.699025 -2.248649 -4.012921
RightLeg 11.653572 -0.000000 -0.000000
RightFoot -13.618663 -10.988245 19.044372
RightToeBase 8.854828 -0.000000 -0.000000
4056
root 5.275451 36.535268 -6.456636 238.619201 -85.935957 -570.443745
Spine -25.691856 -0.645361 -5.320665
Head 14.287979 13.457780 3.437575
LeftShoulder -7.174296 14.573307 24.279084
LeftArm 14.481375 -24.272639 -41.318071
LeftForeArm 19.463731 -0.000000 20.263400
LeftHand -11.947678 0.000000 -12.836215
LeftHandThumb1 -26.253704 0.000000 33.147579
RightShoulder -28.451129 -44.453635 -4.214044
RightArm 51.883809 32.304436 58.224344
RightForeArm 4.220488 0.000000 9.863876
RightHand -0.085800 -0.000000 6.635232
RightHandThumb1 -24.326973 -0.000000 -32.862282
LeftUpLeg -34.250211 14.318516 -2.771936
LeftLeg 18.952342 -0.000000 -0.000000
LeftFoot -7.654149 11.327933 -12.118318
LeftToeBase -1.743660 -0.000000 0.000000
RightUpLeg -29.795046 -2.185900 -3.916233
RightLeg 11.849731 -0.000000 -0.000000
RightFoot -13.754297 -11.072647 19.127594
RightToeBase 8.807479 -0.000000 -0.000000
4057
root 5.276193 36.521520 -6.421094 238.067242 -86.145838 -569.871438
Spine -25.739564 -0.594415 -5.216115
Head 14.116527 13.385468 3.491697
LeftShoulder -7.073966 14.463823 24.486771
LeftArm 14.326567 -25.004804 -40.988912
LeftForeArm 19.239345 -0.000000 19.984814
LeftHand -11.926849 -0.000000 -12.639886
LeftHandThumb1 -26.253704 0.000000 33.147579
RightShoulder -28.476735 -44.398539 -4.286776
RightArm 51.969972 32.874310 58.083907
RightForeArm 4.310132 -0.000000 9.667978
RightHand -0.059958 -0.000000 6.581042
RightHandThumb1 -24.326973 -0.000000 -32.862282
LeftUpLeg -34.065251 14.218213 -2.581340
LeftLeg 18.670367 -0.000000 -0.000000
LeftFoot -7.602706 10.917278 -12.292995
LeftToeBase -0.406751 -0.000000 0.000000
RightUpLeg -29.917209 -2.224736 -3.798394
RightLeg 12.094811 -0.000000 -0.000000
RightFoot -13.854565 -11.069943 19.162056
RightToeBase 8.813609 -0.000000 -0.000000
4058
root 5.274444 36.506144 -6.382007 236.731134 -86.312535 -568.552515
Spine -25.745599 -0.509427 -5.119132
Head 13.952766 13.378489 3.578890
LeftShoulder -6.993685 14.330077 24.719918
LeftArm 14.142808 -25.725229 -40.678228
LeftForeArm 19.006016 -0.000000 19.726332
LeftHand -11.960425 -0.000000 -12.636307
LeftHandThumb1 -26.253704 0.000000 33.147579
RightShoulder -28.450924 -44.308765 -4.412003
RightArm 51.988720 33.375860 57.898270
RightForeArm 4.438924 0.000000 9.489217
RightHand -0.015363 -0.000000 6.476522
RightHandThumb1 -24.326973 -0.000000 -32.862282
LeftUpLeg -33.766197 14.017332 -2.308781
LeftLeg 18.318848 -0.000000 -0.000000
LeftFoot -7.957377 10.933422 -12.794731
LeftToeBase 1.522595 -0.000000 -0.000000
RightUpLeg -29.994730 -2.171737 -3.713243
RightLeg 12.316303 -0.000000 -0.000000
RightFoot -13.961286 -11.102182 19.215684
RightToeBase 8.865369 -0.000000 -0.000000
4059
root 5.270685 36.492785 -6.339884 234.901189 -86.460012 -566.716980
Spine -25.799903 -0.417628 -5.012925
Head 13.833063 13.370805 3.669384
LeftShoulder -6.959244 14.221519 24.965908
LeftArm 14.050305 -26.553265 -40.483104
LeftForeArm 18.882531 -0.000000 19.413830
LeftHand -11.902157 -0.000000 -12.528071
LeftHandThumb1 -26.253704 0.000000 33.147579
RightShoulder -28.403820 -44.222067 -4.561179
RightArm 51.997549 33.848920 57.724801
RightForeArm 4.556291 -0.000000 9.329228
RightHand 0.027671 -0.000000 6.307033
RightHandThumb1 -24.326973 -0.000000 -32.862282
LeftUpLeg -33.466081 13.853942 -2.053491
LeftLeg 17.831391 -0.000000 -0.000000
LeftFoot -8.209679 11.073669 -13.262842
LeftToeBase 1.789330 -0.000000 -0.000000
RightUpLeg -30.095844 -2.096173 -3.624160
RightLeg 12.529786 -0.000000 -0.000000
RightFoot -14.028855 -11.178779 19.233489
RightToeBase 8.819375 -0.000000 -0.000000
